<svg width="583" height="251" xmlns="http://www.w3.org/2000/svg" xmlns:xlink="http://www.w3.org/1999/xlink" xml:space="preserve" overflow="hidden"><g transform="translate(-336 -309)"><path d="M10.3067-24.5557C10.3067-24.5557 10.3067-24.95 9.85609-24.95 9.01126-24.95 6.42053-24.6683 5.46306-24.5557 5.18148-24.5557 4.78722-24.4994 4.78722-23.8798 4.78722-23.4293 5.12517-23.4293 5.63204-23.4293 7.37799-23.4293 7.43429-23.204 7.43429-22.8097L7.32165-22.0776 2.14018-1.40801C1.97121-0.901126 1.97121-0.844806 1.97121-0.619524 1.97121 0.225282 2.70338 0.394243 3.0413 0.394243 3.60451 0.394243 4.16771-0.0563204 4.33665-0.563204L5.0125-3.26658 5.80102-6.47686C6.0263-7.32165 6.25158-8.11014 6.42053-8.89862 6.47686-9.1239 6.81475-10.3067 6.81475-10.5319 6.92743-10.8698 8.05383-12.8411 9.29285-13.8548 10.0814-14.418 11.1514-15.0939 12.7284-15.0939 14.249-15.0939 14.6433-13.8548 14.6433-12.5595 14.6433-10.6445 13.2916-6.70215 12.4468-4.50563 12.1652-3.71715 11.9399-3.26658 11.9399-2.53442 11.9399-0.844806 13.2353 0.394243 14.9249 0.394243 18.3041 0.394243 19.5995-4.84355 19.5995-5.12517 19.5995-5.5194 19.3179-5.5194 19.2052-5.5194 18.811-5.5194 18.811-5.40676 18.6421-4.84355 18.1352-2.92866 16.9524-0.394243 14.9812-0.394243 14.3617-0.394243 14.1364-0.732165 14.1364-1.57697 14.1364-2.4781 14.418-3.3229 14.7559-4.11137 15.3191-5.68834 16.9524-9.96869 16.9524-12.0526 16.9524-14.3617 15.5444-15.8824 12.8411-15.8824 10.5882-15.8824 8.84228-14.7559 7.49059-13.1226Z" transform="matrix(1.00084 0 0 1 609.704 532.894)"/><path d="M6.87109-8.39172C8.84228-8.39172 10.2503-7.04003 10.2503-4.33665 10.2503-1.23905 8.39172-0.281602 6.98373-0.281602 5.96996-0.281602 3.71715-0.563204 2.70338-2.08385 3.88609-2.08385 4.16771-2.92866 4.16771-3.49186 4.16771-4.28035 3.54819-4.84355 2.7597-4.84355 2.08385-4.84355 1.35169-4.39299 1.35169-3.37922 1.35169-1.01377 3.94243 0.506884 6.98373 0.506884 10.4756 0.506884 12.8974-1.85857 12.8974-4.33665 12.8974-6.30788 11.3204-8.27912 8.5607-8.84228 11.1514-9.79975 12.1089-11.6583 12.1089-13.2353 12.1089-15.2065 9.85609-16.6708 7.04003-16.6708 4.28035-16.6708 2.14018-15.3191 2.14018-13.2916 2.14018-12.4468 2.70338-11.9962 3.43554-11.9962 4.22405-11.9962 4.73091-12.5595 4.73091-13.2353 4.73091-13.9675 4.22405-14.5307 3.43554-14.587 4.33665-15.6571 6.0263-15.9387 6.98373-15.9387 8.11014-15.9387 9.68711-15.3755 9.68711-13.2353 9.68711-12.1652 9.34919-10.9825 8.67334-10.2503 7.88486-9.29285 7.15271-9.23655 5.91362-9.1239 5.29412-9.06757 5.23778-9.06757 5.12517-9.06757 5.06884-9.06757 4.84355-9.01126 4.84355-8.72968 4.84355-8.39172 5.06884-8.39172 5.5194-8.39172Z" transform="matrix(1.00084 0 0 1 630.411 538.279)"/><path d="M10.3067-24.5557C10.3067-24.5557 10.3067-24.95 9.85609-24.95 9.01126-24.95 6.42053-24.6683 5.46306-24.5557 5.18148-24.5557 4.78722-24.4994 4.78722-23.8798 4.78722-23.4293 5.12517-23.4293 5.63204-23.4293 7.37799-23.4293 7.43429-23.204 7.43429-22.8097L7.32165-22.0776 2.14018-1.40801C1.97121-0.901126 1.97121-0.844806 1.97121-0.619524 1.97121 0.225282 2.70338 0.394243 3.0413 0.394243 3.60451 0.394243 4.16771-0.0563204 4.33665-0.563204L5.0125-3.26658 5.80102-6.47686C6.0263-7.32165 6.25158-8.11014 6.42053-8.89862 6.47686-9.1239 6.81475-10.3067 6.81475-10.5319 6.92743-10.8698 8.05383-12.8411 9.29285-13.8548 10.0814-14.418 11.1514-15.0939 12.7284-15.0939 14.249-15.0939 14.6433-13.8548 14.6433-12.5595 14.6433-10.6445 13.2916-6.70215 12.4468-4.50563 12.1652-3.71715 11.9399-3.26658 11.9399-2.53442 11.9399-0.844806 13.2353 0.394243 14.9249 0.394243 18.3041 0.394243 19.5995-4.84355 19.5995-5.12517 19.5995-5.5194 19.3179-5.5194 19.2052-5.5194 18.811-5.5194 18.811-5.40676 18.6421-4.84355 18.1352-2.92866 16.9524-0.394243 14.9812-0.394243 14.3617-0.394243 14.1364-0.732165 14.1364-1.57697 14.1364-2.4781 14.418-3.3229 14.7559-4.11137 15.3191-5.68834 16.9524-9.96869 16.9524-12.0526 16.9524-14.3617 15.5444-15.8824 12.8411-15.8824 10.5882-15.8824 8.84228-14.7559 7.49059-13.1226Z" transform="matrix(1.00084 0 0 1 610.211 355.416)"/><path d="M8.39172-15.995C8.39172-16.6708 8.39172-16.6708 7.65957-16.6708 6.0263-15.0939 3.77348-15.0939 2.7597-15.0939L2.7597-14.1927C3.3229-14.1927 5.0125-14.1927 6.36419-14.8686L6.36419-2.08385C6.36419-1.23905 6.36419-0.901126 3.88609-0.901126L2.92866-0.901126 2.92866 0C3.37922 0 6.47686-0.112641 7.37799-0.112641 8.16644-0.112641 11.3204 0 11.8836 0L11.8836-0.901126 10.9262-0.901126C8.39172-0.901126 8.39172-1.23905 8.39172-2.08385Z" transform="matrix(1.00084 0 0 1 630.918 360.801)"/><path d="M10.3067-24.5557C10.3067-24.5557 10.3067-24.95 9.85609-24.95 9.01126-24.95 6.42053-24.6683 5.46306-24.5557 5.18148-24.5557 4.78722-24.4994 4.78722-23.8798 4.78722-23.4293 5.12517-23.4293 5.63204-23.4293 7.37799-23.4293 7.43429-23.204 7.43429-22.8097L7.32165-22.0776 2.14018-1.40801C1.97121-0.901126 1.97121-0.844806 1.97121-0.619524 1.97121 0.225282 2.70338 0.394243 3.0413 0.394243 3.60451 0.394243 4.16771-0.0563204 4.33665-0.563204L5.0125-3.26658 5.80102-6.47686C6.0263-7.32165 6.25158-8.11014 6.42053-8.89862 6.47686-9.1239 6.81475-10.3067 6.81475-10.5319 6.92743-10.8698 8.05383-12.8411 9.29285-13.8548 10.0814-14.418 11.1514-15.0939 12.7284-15.0939 14.249-15.0939 14.6433-13.8548 14.6433-12.5595 14.6433-10.6445 13.2916-6.70215 12.4468-4.50563 12.1652-3.71715 11.9399-3.26658 11.9399-2.53442 11.9399-0.844806 13.2353 0.394243 14.9249 0.394243 18.3041 0.394243 19.5995-4.84355 19.5995-5.12517 19.5995-5.5194 19.3179-5.5194 19.2052-5.5194 18.811-5.5194 18.811-5.40676 18.6421-4.84355 18.1352-2.92866 16.9524-0.394243 14.9812-0.394243 14.3617-0.394243 14.1364-0.732165 14.1364-1.57697 14.1364-2.4781 14.418-3.3229 14.7559-4.11137 15.3191-5.68834 16.9524-9.96869 16.9524-12.0526 16.9524-14.3617 15.5444-15.8824 12.8411-15.8824 10.5882-15.8824 8.84228-14.7559 7.49059-13.1226Z" transform="matrix(1.00084 0 0 1 609.816 444.282)"/><path d="M12.6721-4.56193 11.8273-4.56193C11.7709-3.99877 11.4894-2.53442 11.1514-2.30914 10.9825-2.14018 9.06757-2.14018 8.67334-2.14018L4.05507-2.14018C6.70215-4.44933 7.60327-5.18148 9.06757-6.36419 10.9262-7.82855 12.6721-9.40552 12.6721-11.7709 12.6721-14.8123 10.025-16.6708 6.81475-16.6708 3.71715-16.6708 1.57697-14.4743 1.57697-12.1652 1.57697-10.9262 2.64706-10.7572 2.92866-10.7572 3.49186-10.7572 4.22405-11.2078 4.22405-12.1089 4.22405-12.5595 4.05507-13.4606 2.7597-13.4606 3.54819-15.2065 5.23778-15.7697 6.42053-15.7697 8.95496-15.7697 10.2503-13.7985 10.2503-11.7709 10.2503-9.57447 8.67334-7.88486 7.88486-6.98373L1.85857-0.957447C1.57697-0.732165 1.57697-0.675845 1.57697 0L11.9399 0Z" transform="matrix(1.00084 0 0 1 630.524 449.667)"/><path d="M1295.17 11.0054C1295.17 30.3995 1279.45 46.1216 1260.06 46.1216 1240.66 46.1216 1224.94 30.3995 1224.94 11.0054 1224.94-8.38873 1240.66-24.1108 1260.06-24.1108 1279.45-24.1108 1295.17-8.38873 1295.17 11.0054Z" stroke="#000000" stroke-width="2.68851" fill="none" transform="matrix(1.00084 0 0 1 -633.619 334.629)"/><path d="M1295.17 99.8708C1295.17 119.265 1279.45 134.987 1260.06 134.987 1240.66 134.987 1224.94 119.265 1224.94 99.8708 1224.94 80.4767 1240.66 64.7546 1260.06 64.7546 1279.45 64.7546 1295.17 80.4767 1295.17 99.8708Z" stroke="#000000" stroke-width="2.68851" fill="none" transform="matrix(1.00084 0 0 1 -633.619 334.629)"/><path d="M1039.85 97.1975 1220.03 20.3965" stroke="#000000" stroke-width="2.68851" fill="none" transform="matrix(1.00084 0 0 1 -633.619 334.629)"/><path d="M0 0 5.37771-5.37771-13.4443 0 5.37771 5.37771Z" stroke="#000000" stroke-width="1.43405" fill-rule="evenodd" transform="matrix(-0.920576 0.392054 -0.392384 -0.919802 577.542 359.242)"/><path d="M1039.99 97.9458 1219.72 179.55" stroke="#000000" stroke-width="2.68851" fill="none" transform="matrix(1.00084 0 0 1 -633.619 334.629)"/><path d="M0 0 5.37778-5.37778-13.4445 0 5.37778 5.37778Z" stroke="#000000" stroke-width="1.43407" fill-rule="evenodd" transform="matrix(-0.911173 -0.413367 0.413715 -0.910407 577.329 509.733)"/><path d="M1041.17 98.3061 1220.53 98.0605" stroke="#000000" stroke-width="2.68851" fill="none" transform="matrix(1.00084 0 0 1 -633.619 334.629)"/><path d="M0 0 5.37701-5.37701-13.4425 0 5.37701 5.37701Z" stroke="#000000" stroke-width="1.43387" fill-rule="evenodd" transform="matrix(-1.00084 0.00136904 -0.00137019 -0.999999 577.174 432.704)"/><path d="M1295.17 188.737C1295.17 208.131 1279.45 223.853 1260.06 223.853 1240.66 223.853 1224.94 208.131 1224.94 188.737 1224.94 169.343 1240.66 153.62 1260.06 153.62 1279.45 153.62 1295.17 169.343 1295.17 188.737Z" stroke="#000000" stroke-width="2.68851" fill="none" transform="matrix(1.00084 0 0 1 -633.619 334.629)"/><path d="M1295.17 99.8708C1295.17 119.265 1279.45 134.987 1260.06 134.987 1240.66 134.987 1224.94 119.265 1224.94 99.8708 1224.94 80.4767 1240.66 64.7546 1260.06 64.7546 1279.45 64.7546 1295.17 80.4767 1295.17 99.8708Z" stroke="#000000" stroke-width="2.68851" fill="none" transform="matrix(1.00084 0 0 1 -633.619 334.629)"/><path d="M1478.78 128.319 1295.95 9.84925" stroke="#000000" stroke-width="2.68851" fill="none" transform="matrix(1.00084 0 0 1 -633.619 334.629)"/><path d="M0 0 5.37835-5.37835-13.4459 0 5.37835 5.37835Z" stroke="#000000" stroke-width="1.43422" fill-rule="evenodd" transform="matrix(-0.839713 -0.543664 0.544122 -0.839006 837.37 457.1)"/><path d="M1474.11 150.265 1296.07 187.016" stroke="#000000" stroke-width="2.68851" fill="none" transform="matrix(1.00084 0 0 1 -633.619 334.629)"/><path d="M0 0 5.37719-5.37719-13.443 0 5.37719 5.37719Z" stroke="#000000" stroke-width="1.43392" fill-rule="evenodd" transform="matrix(-0.980145 0.202149 -0.202319 -0.97932 831.189 487.068)"/><path d="M1475.05 139.182 1295.77 99.1341" stroke="#000000" stroke-width="2.68851" fill="none" transform="matrix(1.00084 0 0 1 -633.619 334.629)"/><path d="M0 0 5.37723-5.37723-13.4431 0 5.37723 5.37723Z" stroke="#000000" stroke-width="1.43392" fill-rule="evenodd" transform="matrix(-0.976729 -0.218002 0.218186 -0.975907 832.168 471.467)"/><path d="M1549.96 144.735C1549.96 164.129 1534.24 179.851 1514.85 179.851 1495.45 179.851 1479.73 164.129 1479.73 144.735 1479.73 125.341 1495.45 109.619 1514.85 109.619 1534.24 109.619 1549.96 125.341 1549.96 144.735Z" stroke="#000000" stroke-width="2.68851" fill="none" transform="matrix(1.00084 0 0 1 -633.619 334.629)"/><path d="M1549.19 55.0065C1549.19 74.4006 1533.47 90.1226 1514.08 90.1226 1494.68 90.1226 1478.96 74.4006 1478.96 55.0065 1478.96 35.6123 1494.68 19.8903 1514.08 19.8903 1533.47 19.8903 1549.19 35.6123 1549.19 55.0065Z" stroke="#000000" stroke-width="2.68851" fill="none" transform="matrix(1.00084 0 0 1 -633.619 334.629)"/><path d="M17.4593-13.6859C17.6283-14.1927 17.6283-14.249 17.6283-14.5307 17.6283-15.1502 17.1214-15.4881 16.5582-15.4881 16.2203-15.4881 15.6571-15.2628 15.3191-14.7559 15.2628-14.5307 14.9249-13.4606 14.8123-12.7847 14.5307-11.8836 14.3054-10.8698 14.0801-9.91239L12.4468-3.43554C12.3342-2.92866 10.7572-0.394243 8.39172-0.394243 6.58947-0.394243 6.19524-1.97121 6.19524-3.3229 6.19524-4.95619 6.81475-7.20901 7.9975-10.363 8.5607-11.8273 8.72968-12.2215 8.72968-12.9537 8.72968-14.5307 7.60327-15.8824 5.80102-15.8824 2.36546-15.8824 1.07009-10.6445 1.07009-10.363 1.07009-9.96869 1.40801-9.96869 1.46433-9.96869 1.85857-9.96869 1.85857-10.0814 2.02753-10.6445 3.0413-14.0238 4.44933-15.0939 5.68834-15.0939 5.96996-15.0939 6.58947-15.0939 6.58947-13.9675 6.58947-13.0663 6.19524-12.1089 5.96996-11.4331 4.50563-7.60327 3.88609-5.57574 3.88609-3.88609 3.88609-0.675845 6.13891 0.394243 8.27912 0.394243 9.68711 0.394243 10.8698-0.225282 11.8836-1.23905 11.4331 0.619524 10.9825 2.42178 9.57447 4.33665 8.617 5.5194 7.26531 6.58947 5.63204 6.58947 5.12517 6.58947 3.49186 6.47686 2.87234 5.06884 3.43554 5.06884 3.94243 5.06884 4.39299 4.61827 4.78722 4.33665 5.12517 3.82979 5.12517 3.15394 5.12517 2.02753 4.16771 1.91489 3.82979 1.91489 2.98498 1.91489 1.80225 2.4781 1.80225 4.22405 1.80225 6.0263 3.37922 7.37799 5.63204 7.37799 9.29285 7.37799 13.01 4.11137 14.0238 0.0563204Z" transform="matrix(1.00084 0 0 1 866.448 393.888)"/><path d="M8.39172-15.995C8.39172-16.6708 8.39172-16.6708 7.65957-16.6708 6.0263-15.0939 3.77348-15.0939 2.7597-15.0939L2.7597-14.1927C3.3229-14.1927 5.0125-14.1927 6.36419-14.8686L6.36419-2.08385C6.36419-1.23905 6.36419-0.901126 3.88609-0.901126L2.92866-0.901126 2.92866 0C3.37922 0 6.47686-0.112641 7.37799-0.112641 8.16644-0.112641 11.3204 0 11.8836 0L11.8836-0.901126 10.9262-0.901126C8.39172-0.901126 8.39172-1.23905 8.39172-2.08385Z" transform="matrix(1.00084 0 0 1 884.071 399.273)"/><path d="M1476.81 44.9641 1295.39 9.14038" stroke="#000000" stroke-width="2.68851" fill="none" transform="matrix(1.00084 0 0 1 -633.619 334.629)"/><path d="M0 0 5.37718-5.37718-13.4429 0 5.37718 5.37718Z" stroke="#000000" stroke-width="1.43391" fill-rule="evenodd" transform="matrix(-0.981852 -0.193716 0.193879 -0.981026 833.88 377.51)"/><path d="M1477.15 68.9698 1295.6 187.016" stroke="#000000" stroke-width="2.68851" fill="none" transform="matrix(1.00084 0 0 1 -633.619 334.629)"/><path d="M0 0 5.37836-5.37836-13.4459 0 5.37836 5.37836Z" stroke="#000000" stroke-width="1.43422" fill-rule="evenodd" transform="matrix(-0.838865 0.544968 -0.545427 -0.838159 835.756 409.461)"/><path d="M1474.29 56.1932 1295 99.1341" stroke="#000000" stroke-width="2.68851" fill="none" transform="matrix(1.00084 0 0 1 -633.619 334.629)"/><path d="M0 0 5.37726-5.37726-13.4431 0 5.37726 5.37726Z" stroke="#000000" stroke-width="1.43393" fill-rule="evenodd" transform="matrix(-0.97327 0.232911 -0.233107 -0.972451 831.442 393.327)"/><path d="M17.4593-13.6859C17.6283-14.1927 17.6283-14.249 17.6283-14.5307 17.6283-15.1502 17.1214-15.4881 16.5582-15.4881 16.2203-15.4881 15.6571-15.2628 15.3191-14.7559 15.2628-14.5307 14.9249-13.4606 14.8123-12.7847 14.5307-11.8836 14.3054-10.8698 14.0801-9.91239L12.4468-3.43554C12.3342-2.92866 10.7572-0.394243 8.39172-0.394243 6.58947-0.394243 6.19524-1.97121 6.19524-3.3229 6.19524-4.95619 6.81475-7.20901 7.9975-10.363 8.5607-11.8273 8.72968-12.2215 8.72968-12.9537 8.72968-14.5307 7.60327-15.8824 5.80102-15.8824 2.36546-15.8824 1.07009-10.6445 1.07009-10.363 1.07009-9.96869 1.40801-9.96869 1.46433-9.96869 1.85857-9.96869 1.85857-10.0814 2.02753-10.6445 3.0413-14.0238 4.44933-15.0939 5.68834-15.0939 5.96996-15.0939 6.58947-15.0939 6.58947-13.9675 6.58947-13.0663 6.19524-12.1089 5.96996-11.4331 4.50563-7.60327 3.88609-5.57574 3.88609-3.88609 3.88609-0.675845 6.13891 0.394243 8.27912 0.394243 9.68711 0.394243 10.8698-0.225282 11.8836-1.23905 11.4331 0.619524 10.9825 2.42178 9.57447 4.33665 8.617 5.5194 7.26531 6.58947 5.63204 6.58947 5.12517 6.58947 3.49186 6.47686 2.87234 5.06884 3.43554 5.06884 3.94243 5.06884 4.39299 4.61827 4.78722 4.33665 5.12517 3.82979 5.12517 3.15394 5.12517 2.02753 4.16771 1.91489 3.82979 1.91489 2.98498 1.91489 1.80225 2.4781 1.80225 4.22405 1.80225 6.0263 3.37922 7.37799 5.63204 7.37799 9.29285 7.37799 13.01 4.11137 14.0238 0.0563204Z" transform="matrix(1.00084 0 0 1 866.816 483.616)"/><path d="M12.6721-4.56193 11.8273-4.56193C11.7709-3.99877 11.4894-2.53442 11.1514-2.30914 10.9825-2.14018 9.06757-2.14018 8.67334-2.14018L4.05507-2.14018C6.70215-4.44933 7.60327-5.18148 9.06757-6.36419 10.9262-7.82855 12.6721-9.40552 12.6721-11.7709 12.6721-14.8123 10.025-16.6708 6.81475-16.6708 3.71715-16.6708 1.57697-14.4743 1.57697-12.1652 1.57697-10.9262 2.64706-10.7572 2.92866-10.7572 3.49186-10.7572 4.22405-11.2078 4.22405-12.1089 4.22405-12.5595 4.05507-13.4606 2.7597-13.4606 3.54819-15.2065 5.23778-15.7697 6.42053-15.7697 8.95496-15.7697 10.2503-13.7985 10.2503-11.7709 10.2503-9.57447 8.67334-7.88486 7.88486-6.98373L1.85857-0.957447C1.57697-0.732165 1.57697-0.675845 1.57697 0L11.9399 0Z" transform="matrix(1.00084 0 0 1 884.439 489.002)"/><path d="M1040.38 99.8708C1040.38 119.265 1024.65 134.987 1005.26 134.987 985.865 134.987 970.143 119.265 970.143 99.8708 970.143 80.4767 985.865 64.7546 1005.26 64.7546 1024.65 64.7546 1040.38 80.4767 1040.38 99.8708Z" stroke="#000000" stroke-width="2.68851" fill="none" transform="matrix(1.00084 0 0 1 -633.619 334.629)"/><path d="M1040.38 188.737C1040.38 208.131 1024.65 223.853 1005.26 223.853 985.865 223.853 970.143 208.131 970.143 188.737 970.143 169.343 985.865 153.62 1005.26 153.62 1024.65 153.62 1040.38 169.343 1040.38 188.737Z" stroke="#000000" stroke-width="2.68851" fill="none" transform="matrix(1.00084 0 0 1 -633.619 334.629)"/><path d="M1040.38 99.8708C1040.38 119.265 1024.65 134.987 1005.26 134.987 985.865 134.987 970.143 119.265 970.143 99.8708 970.143 80.4767 985.865 64.7546 1005.26 64.7546 1024.65 64.7546 1040.38 80.4767 1040.38 99.8708Z" stroke="#000000" stroke-width="2.68851" fill="none" transform="matrix(1.00084 0 0 1 -633.619 245.764)"/><path d="M11.9962-10.8698C12.2215-11.7709 13.0663-15.0939 15.5444-15.0939 15.7134-15.0939 16.6145-15.0939 17.3467-14.6433 16.3329-14.418 15.6571-13.5732 15.6571-12.6721 15.6571-12.1089 16.0513-11.4331 17.0088-11.4331 17.7972-11.4331 18.9237-12.0526 18.9237-13.5169 18.9237-15.3755 16.8398-15.8824 15.6007-15.8824 13.5169-15.8824 12.2778-13.9675 11.8273-13.179 10.9262-15.5444 9.01126-15.8824 7.94116-15.8824 4.22405-15.8824 2.14018-11.2641 2.14018-10.363 2.14018-9.96869 2.53442-9.96869 2.59074-9.96869 2.87234-9.96869 2.98498-10.0814 3.0413-10.363 4.28035-14.1927 6.64581-15.0939 7.88486-15.0939 8.5607-15.0939 9.79975-14.7559 9.79975-12.6721 9.79975-11.5457 9.18024-9.18024 7.88486-4.11137 7.32165-1.91489 6.0263-0.394243 4.44933-0.394243 4.22405-0.394243 3.43554-0.394243 2.64706-0.844806 3.54819-1.07009 4.33665-1.80225 4.33665-2.81602 4.33665-3.77348 3.54819-4.05507 3.0413-4.05507 1.91489-4.05507 1.07009-3.15394 1.07009-1.97121 1.07009-0.337922 2.81602 0.394243 4.39299 0.394243 6.81475 0.394243 8.11014-2.14018 8.16644-2.30914 8.617-1.01377 9.91239 0.394243 12.0526 0.394243 15.7697 0.394243 17.7972-4.22405 17.7972-5.12517 17.7972-5.5194 17.5157-5.5194 17.403-5.5194 17.0651-5.5194 17.0088-5.35046 16.8961-5.12517 15.7134-1.23905 13.2916-0.394243 12.1652-0.394243 10.7572-0.394243 10.194-1.52065 10.194-2.7597 10.194-3.54819 10.363-4.33665 10.7572-5.91362Z" transform="matrix(1.00084 0 0 1 355.737 350.883)"/><path d="M8.39172-15.995C8.39172-16.6708 8.39172-16.6708 7.65957-16.6708 6.0263-15.0939 3.77348-15.0939 2.7597-15.0939L2.7597-14.1927C3.3229-14.1927 5.0125-14.1927 6.36419-14.8686L6.36419-2.08385C6.36419-1.23905 6.36419-0.901126 3.88609-0.901126L2.92866-0.901126 2.92866 0C3.37922 0 6.47686-0.112641 7.37799-0.112641 8.16644-0.112641 11.3204 0 11.8836 0L11.8836-0.901126 10.9262-0.901126C8.39172-0.901126 8.39172-1.23905 8.39172-2.08385Z" transform="matrix(1.00084 0 0 1 376.278 356.268)"/><path d="M11.9962-10.8698C12.2215-11.7709 13.0663-15.0939 15.5444-15.0939 15.7134-15.0939 16.6145-15.0939 17.3467-14.6433 16.3329-14.418 15.6571-13.5732 15.6571-12.6721 15.6571-12.1089 16.0513-11.4331 17.0088-11.4331 17.7972-11.4331 18.9237-12.0526 18.9237-13.5169 18.9237-15.3755 16.8398-15.8824 15.6007-15.8824 13.5169-15.8824 12.2778-13.9675 11.8273-13.179 10.9262-15.5444 9.01126-15.8824 7.94116-15.8824 4.22405-15.8824 2.14018-11.2641 2.14018-10.363 2.14018-9.96869 2.53442-9.96869 2.59074-9.96869 2.87234-9.96869 2.98498-10.0814 3.0413-10.363 4.28035-14.1927 6.64581-15.0939 7.88486-15.0939 8.5607-15.0939 9.79975-14.7559 9.79975-12.6721 9.79975-11.5457 9.18024-9.18024 7.88486-4.11137 7.32165-1.91489 6.0263-0.394243 4.44933-0.394243 4.22405-0.394243 3.43554-0.394243 2.64706-0.844806 3.54819-1.07009 4.33665-1.80225 4.33665-2.81602 4.33665-3.77348 3.54819-4.05507 3.0413-4.05507 1.91489-4.05507 1.07009-3.15394 1.07009-1.97121 1.07009-0.337922 2.81602 0.394243 4.39299 0.394243 6.81475 0.394243 8.11014-2.14018 8.16644-2.30914 8.617-1.01377 9.91239 0.394243 12.0526 0.394243 15.7697 0.394243 17.7972-4.22405 17.7972-5.12517 17.7972-5.5194 17.5157-5.5194 17.403-5.5194 17.0651-5.5194 17.0088-5.35046 16.8961-5.12517 15.7134-1.23905 13.2916-0.394243 12.1652-0.394243 10.7572-0.394243 10.194-1.52065 10.194-2.7597 10.194-3.54819 10.363-4.33665 10.7572-5.91362Z" transform="matrix(1.00084 0 0 1 355.342 439.748)"/><path d="M12.6721-4.56193 11.8273-4.56193C11.7709-3.99877 11.4894-2.53442 11.1514-2.30914 10.9825-2.14018 9.06757-2.14018 8.67334-2.14018L4.05507-2.14018C6.70215-4.44933 7.60327-5.18148 9.06757-6.36419 10.9262-7.82855 12.6721-9.40552 12.6721-11.7709 12.6721-14.8123 10.025-16.6708 6.81475-16.6708 3.71715-16.6708 1.57697-14.4743 1.57697-12.1652 1.57697-10.9262 2.64706-10.7572 2.92866-10.7572 3.49186-10.7572 4.22405-11.2078 4.22405-12.1089 4.22405-12.5595 4.05507-13.4606 2.7597-13.4606 3.54819-15.2065 5.23778-15.7697 6.42053-15.7697 8.95496-15.7697 10.2503-13.7985 10.2503-11.7709 10.2503-9.57447 8.67334-7.88486 7.88486-6.98373L1.85857-0.957447C1.57697-0.732165 1.57697-0.675845 1.57697 0L11.9399 0Z" transform="matrix(1.00084 0 0 1 375.883 445.133)"/><path d="M11.9962-10.8698C12.2215-11.7709 13.0663-15.0939 15.5444-15.0939 15.7134-15.0939 16.6145-15.0939 17.3467-14.6433 16.3329-14.418 15.6571-13.5732 15.6571-12.6721 15.6571-12.1089 16.0513-11.4331 17.0088-11.4331 17.7972-11.4331 18.9237-12.0526 18.9237-13.5169 18.9237-15.3755 16.8398-15.8824 15.6007-15.8824 13.5169-15.8824 12.2778-13.9675 11.8273-13.179 10.9262-15.5444 9.01126-15.8824 7.94116-15.8824 4.22405-15.8824 2.14018-11.2641 2.14018-10.363 2.14018-9.96869 2.53442-9.96869 2.59074-9.96869 2.87234-9.96869 2.98498-10.0814 3.0413-10.363 4.28035-14.1927 6.64581-15.0939 7.88486-15.0939 8.5607-15.0939 9.79975-14.7559 9.79975-12.6721 9.79975-11.5457 9.18024-9.18024 7.88486-4.11137 7.32165-1.91489 6.0263-0.394243 4.44933-0.394243 4.22405-0.394243 3.43554-0.394243 2.64706-0.844806 3.54819-1.07009 4.33665-1.80225 4.33665-2.81602 4.33665-3.77348 3.54819-4.05507 3.0413-4.05507 1.91489-4.05507 1.07009-3.15394 1.07009-1.97121 1.07009-0.337922 2.81602 0.394243 4.39299 0.394243 6.81475 0.394243 8.11014-2.14018 8.16644-2.30914 8.617-1.01377 9.91239 0.394243 12.0526 0.394243 15.7697 0.394243 17.7972-4.22405 17.7972-5.12517 17.7972-5.5194 17.5157-5.5194 17.403-5.5194 17.0651-5.5194 17.0088-5.35046 16.8961-5.12517 15.7134-1.23905 13.2916-0.394243 12.1652-0.394243 10.7572-0.394243 10.194-1.52065 10.194-2.7597 10.194-3.54819 10.363-4.33665 10.7572-5.91362Z" transform="matrix(1.00084 0 0 1 355.229 528.36)"/><path d="M6.87109-8.39172C8.84228-8.39172 10.2503-7.04003 10.2503-4.33665 10.2503-1.23905 8.39172-0.281602 6.98373-0.281602 5.96996-0.281602 3.71715-0.563204 2.70338-2.08385 3.88609-2.08385 4.16771-2.92866 4.16771-3.49186 4.16771-4.28035 3.54819-4.84355 2.7597-4.84355 2.08385-4.84355 1.35169-4.39299 1.35169-3.37922 1.35169-1.01377 3.94243 0.506884 6.98373 0.506884 10.4756 0.506884 12.8974-1.85857 12.8974-4.33665 12.8974-6.30788 11.3204-8.27912 8.5607-8.84228 11.1514-9.79975 12.1089-11.6583 12.1089-13.2353 12.1089-15.2065 9.85609-16.6708 7.04003-16.6708 4.28035-16.6708 2.14018-15.3191 2.14018-13.2916 2.14018-12.4468 2.70338-11.9962 3.43554-11.9962 4.22405-11.9962 4.73091-12.5595 4.73091-13.2353 4.73091-13.9675 4.22405-14.5307 3.43554-14.587 4.33665-15.6571 6.0263-15.9387 6.98373-15.9387 8.11014-15.9387 9.68711-15.3755 9.68711-13.2353 9.68711-12.1652 9.34919-10.9825 8.67334-10.2503 7.88486-9.29285 7.15271-9.23655 5.91362-9.1239 5.29412-9.06757 5.23778-9.06757 5.12517-9.06757 5.06884-9.06757 4.84355-9.01126 4.84355-8.72968 4.84355-8.39172 5.06884-8.39172 5.5194-8.39172Z" transform="matrix(1.00084 0 0 1 375.77 533.745)"/><path d="M1039.99 10.5215 1220.62 87.6351" stroke="#000000" stroke-width="2.68851" fill="none" transform="matrix(1.00084 0 0 1 -633.619 334.629)"/><path d="M0 0 5.37771-5.37771-13.4443 0 5.37771 5.37771Z" stroke="#000000" stroke-width="1.43405" fill-rule="evenodd" transform="matrix(-0.920345 -0.392594 0.392925 -0.919571 578.128 418.042)"/><path d="M1041.17 11.2257 1220.53 10.9799" stroke="#000000" stroke-width="2.68851" fill="none" transform="matrix(1.00084 0 0 1 -633.619 334.629)"/><path d="M0 0 5.37701-5.37701-13.4425 0 5.37701 5.37701Z" stroke="#000000" stroke-width="1.43387" fill-rule="evenodd" transform="matrix(-1.00084 0.00137004 -0.00137119 -0.999999 577.174 345.624)"/><path d="M1039.85 188.214 1220.03 106.623" stroke="#000000" stroke-width="2.68851" fill="none" transform="matrix(1.00084 0 0 1 -633.619 334.629)"/><path d="M0 0 5.37778-5.37778-13.4445 0 5.37778 5.37778Z" stroke="#000000" stroke-width="1.43407" fill-rule="evenodd" transform="matrix(-0.911594 0.412441 -0.412788 -0.910827 577.639 445.688)"/><path d="M1041.17 188.956 1219.03 188.711" stroke="#000000" stroke-width="2.68851" fill="none" transform="matrix(1.00084 0 0 1 -633.619 334.629)"/><path d="M0 0 5.37701-5.37701-13.4425 0 5.37701 5.37701Z" stroke="#000000" stroke-width="1.43387" fill-rule="evenodd" transform="matrix(-1.00084 0.00138056 -0.00138172 -0.999999 575.676 523.355)"/><path d="M1039.99 11.4197 1222.97 169.845" stroke="#000000" stroke-width="2.68851" fill="none" transform="matrix(1.00084 0 0 1 -633.619 334.629)"/><path d="M0 0 5.37895-5.37895-13.4474 0 5.37895 5.37895Z" stroke="#000000" stroke-width="1.43438" fill-rule="evenodd" transform="matrix(-0.756357 -0.654343 0.654894 -0.755721 582.24 497.435)"/><path d="M1040.29 188.307 1222.42 29.458" stroke="#000000" stroke-width="2.68851" fill="none" transform="matrix(1.00084 0 0 1 -633.619 334.629)"/><path d="M0 0 5.37897-5.37897-13.4474 0 5.37897 5.37897Z" stroke="#000000" stroke-width="1.43439" fill-rule="evenodd" transform="matrix(-0.753988 0.657063 -0.657616 -0.753353 581.718 371.156)"/></g></svg>